# xmcd
#
# Track frame offsets: 
#        182
#        18502
#        33125
#        51862
#        71715
#        87190
#        109505
#        120262
#        139032
#        154917
#        173810
#        193632
#        215815
#
# Disc length: 3083 seconds
#
# Revision: 8
# Processed by: cddbd v1.5.2PL0 Copyright (c) Steve Scherf et al.
# Submitted via: ExactAudioCopyFreeDBPlugin 1.0
#
DISCID=ad0c090d
DTITLE=Morbid Angel - Altars Of Madness
DYEAR=1989
DGENRE=Metal
TTITLE0=Immortal Rites
TTITLE1=Suffocation
TTITLE2=Visions From The Dark Side
TTITLE3=Maze Of Torment
TTITLE4=Lord Of All Fevers and Plague
TTITLE5=Chapel Of Ghouls
TTITLE6=Bleed For The Devil
TTITLE7=Damnation
TTITLE8=Blasphemy
TTITLE9=Evil Spells
TTITLE10=Maze Of Torment (Re-Mix)
TTITLE11=Chapel Of Ghouls (Re-Mix)
TTITLE12=Blasphemy (Re-Mix)
EXTD=YEAR: 1989
EXTT0=
EXTT1=
EXTT2=
EXTT3=
EXTT4=
EXTT5=
EXTT6=
EXTT7=
EXTT8=
EXTT9=
EXTT10=
EXTT11=
EXTT12=
PLAYORDER=
